<svg xmlns="http://www.w3.org/2000/svg"><defs><symbol id="logo" fill="none" viewBox="0 0 55 40"><path fill="#000" d="M31.9593.445294c0 .762666-.7193 1.759336-2.158 2.989996-1.4386 1.23067-3.484 2.73-6.136 4.498-1.612 2.16671-2.9813 4.23801-4.108 6.21401-1.1093 1.976-1.664 3.3453-1.664 4.108 0 .7627.2167 1.144.65 1.144.312 0 .7367-.1647 1.274-.494.5547-.3293 1.0227-.6587 1.404-.988l.572-.494c.104-.1213.1994-.182.286-.182.0867 0 .13.0347.13.104 0 .4507-.5546 1.0053-1.664 1.664-1.1093.6587-1.9413.988-2.496.988-1.0573 0-1.586-.4073-1.586-1.222 0-.832.416-2.0713 1.248-3.718.832-1.6467 1.9067-3.4147 3.224-5.30401-2.86 1.85471-5.0006 3.25871-6.422 4.21201-1.8373 2.5133-3.666 4.6887-5.48596 6.526-1.82 1.8547-3.094 2.782-3.822 2.782-.39867 0-.598-.1473-.598-.442 0-.9707.73666-2.158 2.21-3.562 1.49066-1.404 3.55336-3.0247 6.18796-4.862 1.6294-2.3227 2.99-4.52401 4.082-6.60401 1.1094-2.09733 1.664-3.62266 1.664-4.576 0-1.092-.546-1.75933-1.638-2.002-.8493-.208-1.742-.311996-2.678-.311996-.9186 0-1.6553.026-2.21.078-.5373.051996-1.1353.155996-1.794.311996-.65863.13867-1.19596.37267-1.61196.702-.39867.32934-.598.728-.598 1.196 0 .53734.468.962 1.404 1.274.95336.312 2.01066.624 3.17196.936 1.1787.312 1.9327.69334 2.262 1.144.1387.156.234.442.286.858 0 .12134-.0433.182-.13.182-.0693 0-.1386-.06066-.208-.182-.156-.364-.6586-.68466-1.508-.962-.832-.29466-1.7073-.52-2.626-.676-.9013-.17333-1.72463-.442-2.46996-.806-.728-.38133-1.092-.84933-1.092-1.404 0-.55466.182-1.03133.546-1.43.364-.416.78866-.728 1.274-.936C9.634.991294 10.2667.826627 11.0293.705293c1.144-.155999 2.4787-.233998 4.004-.233998 1.5427 0 2.7387.251333 3.588.753995.8667.50267 1.3 1.20467 1.3 2.106 0 1.924-1.5426 5.096-4.628 9.51601.832-.5547 2.0107-1.326 3.536-2.314 1.5254-1.00534 2.5047-1.65534 2.938-1.95001 1.7854-2.42666 3.5707-4.46333 5.356-6.11C28.926.826628 30.382.003295 31.4913.003295c.312 0 .468.147333.468.441999ZM5.51734 22.6753c.48533 0 1.352-.6847 2.6-2.054 1.26533-1.352 2.63466-3.0507 4.10796-5.096-4.5933 3.224-6.88996 5.5293-6.88996 6.916 0 .156.06066.234.182.234ZM30.8673.601295c-.4853 0-1.3.571995-2.444 1.715995-1.144 1.12667-2.4093 2.58267-3.796 4.368 4.264-2.912 6.396-4.888 6.396-5.927996 0-.104-.052-.155999-.156-.155999ZM27.4951 17.2413c.9706 0 2.132-.546 3.484-1.638l.442.13c-1.6987 1.4213-3.1634 2.132-4.394 2.132-.1387 0-.2427-.0087-.312-.026-.468.572-.9794 1.04-1.534 1.404-.5547.3467-1.04.52-1.456.52-.6587 0-.988-.364-.988-1.092 0-.7453.6153-1.7333 1.846-2.964-.208-.5027-.312-1.0313-.312-1.586s.1993-1.0053.598-1.352c.3986-.3467.858-.52 1.378-.52.5373 0 .988.1733 1.352.52.364.3467.546.8407.546 1.482 0 .988-.3207 1.976-.962 2.964.0693.0173.1733.026.312.026Zm-.832-.26c.5373-.9013.806-1.664.806-2.288 0-.6413-.156-1.1093-.468-1.404-.312-.312-.6154-.468-.91-.468-.6067 0-.91.312-.91.936 0 .624.1386 1.248.416 1.872.2773.6067.6326 1.0573 1.066 1.352Zm-2.86 1.534c0 .3467.2253.52.676.52.4506 0 1.0226-.4593 1.716-1.378-.468-.2427-.884-.6673-1.248-1.274-.7627.832-1.144 1.5427-1.144 2.132Zm7.5836-3.562-.052-.286c0-.0867.182-.13.546-.13.208 0 .312.13.312.39s-.3033.8407-.91 1.742c-.5893.884-.884 1.3433-.884 1.378 0 .0347.0347.052.104.052.0694 0 .8667-.6067 2.392-1.82 1.5427-1.2133 2.47-1.82 2.782-1.82.312 0 .468.1127.468.338 0 .208-.0866.4507-.26.728-.1733.26-.5373.7453-1.092 1.456-.5546.6933-.8493 1.066-.884 1.118-.0346.052-.052.1127-.052.182s.052.104.156.104c.1214 0 .9794-.5893 2.574-1.768 1.5947-1.1787 2.5047-1.768 2.73-1.768.2254 0 .338.0953.338.286 0 .3467-.3813.9533-1.144 1.82-.7626.8667-1.144 1.4213-1.144 1.664 0 .2253.0867.338.26.338.1907 0 .65-.2427 1.378-.728 1.3-.8667 2.496-1.742 3.588-2.626l.572-.468c.1387-.0867.2514-.13.338-.13.104 0 .156.052.156.156v.078c-3.6573 3.0507-5.9193 4.576-6.786 4.576-.5026 0-.754-.208-.754-.624 0-.3467.2514-.858.754-1.534.5027-.676.754-1.04.754-1.092 0-.0693-.026-.104-.078-.104-.0346 0-.7453.494-2.132 1.482-1.3693.988-2.184 1.482-2.444 1.482-.1213 0-.2253-.0433-.312-.13-.0866-.104-.13-.208-.13-.312 0-.312.3727-.9447 1.118-1.898.7454-.936 1.118-1.4473 1.118-1.534s-.052-.13-.156-.13c-.1213 0-1.352.9533-3.692 2.86l-1.3 1.04c-.2253.1907-.3986.286-.52.286-.104 0-.208-.0347-.312-.104-.104-.052-.156-.1387-.156-.26 0-.1213.1474-.416.442-.884.312-.468.7107-1.04 1.196-1.716.7454-1.0053 1.118-1.5687 1.118-1.69Zm18.4348.208c.1214-.0867.234-.13.338-.13.104 0 .156.0607.156.182v.052c-1.8026 1.4907-3.302 2.6087-4.498 3.354-1.196.7453-2.2793 1.118-3.25 1.118-.78 0-1.17-.3813-1.17-1.144 0-1.1267.572-2.2793 1.716-3.458 1.144-1.196 2.106-1.794 2.886-1.794.4334 0 .65.2427.65.728-.0866.9533-1.456 2.236-4.108 3.848v.26c0 .572.2947.858.884.858.6067 0 1.2567-.1993 1.95-.598 1.352-.7973 2.6174-1.7073 3.796-2.73l.65-.546Zm-4.498-1.014c-.3813 0-.8753.3207-1.482.962-.5893.6413-.988 1.3693-1.196 2.184.832-.5027 1.534-1.0313 2.106-1.586.572-.572.858-.9707.858-1.196 0-.2427-.0953-.364-.286-.364Z"/><path stroke="#000" stroke-opacity=".54" d="M2 25.5h48"/><path fill="#000" fill-opacity=".41" d="M4.36133 32.6016v.6015H2.50195v4.416c0 .4011.10482.6563.31446.7657.20963.1093.55599.164 1.03906.164v.3418c-.23698-.0091-.50586-.0136-.80664-.0136-.29167-.0092-.59245-.0137-.90235-.0137-.30078 0-.597.0045-.88867.0137-.291664 0-.546872.0045-.765622.0136v-.3418c.410156 0 .706382-.0729.888672-.2187.19141-.1459.28711-.3919.28711-.7383v-4.3887H.628906v-.2734c.236979-.0274.469404-.1003.697264-.2188.22787-.1276.3418-.3509.3418-.6699 0-.2461.02279-.5241.06836-.834.04557-.3099.11849-.6198.21875-.9297.09114-.3007.20508-.5878.3418-.8613.14583-.2825.31445-.515.50585-.6972.35547-.3646.68816-.6198.99805-.7657.31901-.1458.5332-.2187.64258-.2187.20963 0 .3737.0501.49219.1504.11849.0911.17773.2324.17773.4238 0 .1641-.06836.2871-.20508.3691-.1276.0821-.24153.1231-.34179.1231-.07292 0-.13217-.0046-.17774-.0137-.04557-.0182-.10026-.0364-.16406-.0547-.05469-.0182-.1276-.0364-.21875-.0547-.09115-.0182-.20964-.0273-.35547-.0273-.20963 0-.38737.0592-.5332.1777-.13672.1185-.25521.2643-.35547.4375-.09115.1732-.15951.3555-.20508.5469-.03646.1914-.05469.36-.05469.5059v2.2832h1.85938Zm5.83787 5.1953c-.43748.3554-.89321.6653-1.36717.9297-.47396.2643-.9388.3964-1.39453.3964-.17318 0-.34635-.0319-.51953-.0957-.17318-.0546-.33268-.1549-.47852-.3007-.13672-.1368-.25065-.3145-.34179-.5332-.08204-.2188-.12305-.4877-.12305-.8067v-3.7734c0-.3099-.05925-.515-.17773-.6153-.11849-.1093-.35092-.1731-.69727-.1914v-.2597c.1276 0 .25521-.0046.38281-.0137.12761-.0091.26432-.0182.41016-.0273.14583-.0092.29622-.0183.45117-.0274.15495-.0182.32813-.0364.51953-.0547-.01823.1823-.0319.392-.04101.6289v3.5957c0 .711.09114 1.1804.27343 1.4082.19141.2279.49219.3418.90235.3418.34635 0 .72005-.0911 1.12109-.2734.41016-.1823.77474-.4238 1.09376-.7246v-3.7871c0-.3099-.0866-.515-.25978-.6153-.17317-.1093-.42838-.1731-.76562-.1914v-.2597c.1276 0 .26432-.0046.41016-.0137.14583-.0091.29622-.0182.45114-.0273.155-.0092.319-.0183.4922-.0274.1732-.0182.3555-.0364.5469-.0547-.0182.1823-.0319.392-.041.6289v4.8125c0 .2917.0683.4694.2051.5332.1458.0547.3964.0684.7519.0411v.2597c-.0911.0182-.2051.0456-.3418.082-.1276.0274-.2643.0639-.4101.1094-.155.0365-.3099.0729-.4649.1094-.1458.0456-.2871.0866-.4238.123-.0547.0183-.0957.0183-.1231 0-.0273-.0182-.041-.0546-.041-.1093v-1.2168Zm4.5664-4.0742c.1367-.1823.2917-.3601.4649-.5332.1731-.1823.3463-.3464.5195-.4922.1823-.1368.36-.2461.5332-.3282.1732-.0911.3372-.1367.4922-.1367.2187 0 .4101.0593.5742.1778.1641.1093.2461.2643.2461.4648 0 .2188-.0684.3874-.2051.5059-.1276.1093-.2506.164-.3691.164-.1094 0-.196-.0137-.2598-.041-.0638-.0365-.1276-.0775-.1914-.123-.0638-.0456-.1367-.0866-.2187-.1231-.073-.0364-.1732-.0547-.3008-.0547-.082 0-.196.041-.3418.1231-.1458.082-.2871.1868-.4238.3144-.1459.1276-.2689.278-.3692.4512-.1002.1641-.1504.3327-.1504.5059v2.8984c0 .2187.0137.401.041.5469.0365.1367.1094.2415.2188.3144.1094.0729.2643.1231.4648.1504.2006.0274.4694.041.8067.041v.3418c-.2097-.0091-.4694-.0136-.7793-.0136-.3099-.0092-.6289-.0137-.9571-.0137-.3281 0-.6471.0045-.957.0137-.3099 0-.5696.0045-.7793.0136v-.3418c.4649 0 .7656-.0592.9024-.1777.1367-.1185.205-.4102.205-.875v-3.2129c0-.2461-.0091-.4421-.0273-.5879-.0182-.1458-.0547-.2598-.1094-.3418-.0547-.082-.1367-.1367-.2461-.164-.1093-.0274-.2597-.0411-.4511-.0411v-.2871c.2916-.0455.5559-.1139.7929-.2051.2461-.0911.474-.2324.6836-.4238h.2461c-.0273.2461-.0456.5013-.0547.7656v.7247Zm5.3731-1.4903c-.0274.2461-.0456.4877-.0547.7246v.5332c.4101-.3007.8522-.5879 1.3262-.8613.4739-.2734.9296-.4101 1.3671-.4101.5469 0 .9388.2005 1.1758.6015.237.3919.3555.8705.3555 1.4356v3.2402c0 .3828.0638.6562.1914.8203.1276.155.3965.2324.8066.2324v.3418h-.3691c-.1094 0-.2187-.0045-.3281-.0136h-.3418c-.1094-.0092-.2279-.0137-.3555-.0137-.1367 0-.2643.0045-.3828.0137h-.3281c-.1094 0-.2233.0045-.3418.0136h-.3555v-.3418c.3919 0 .6517-.0774.7793-.2324.1276-.1641.1914-.4375.1914-.8203v-3.2539c0-.4557-.1048-.7839-.3144-.9844-.2097-.2005-.556-.3008-1.0391-.3008-.1367.0091-.2962.0456-.4785.1094-.1823.0547-.3646.1231-.5469.2051-.1914.0911-.3783.1914-.5605.3008-.1732.1093-.3236.2187-.4512.3281v3.5957c0 .3828.0638.6562.1914.8203.1276.155.3965.2324.8066.2324v.3418h-.3691c-.1094 0-.2188-.0045-.3281-.0136h-.3418c-.1094-.0092-.2279-.0137-.3555-.0137-.1367 0-.2643.0045-.3828.0137h-.3281c-.1185 0-.237.0045-.3555.0136h-.3555v-.3418c.4011 0 .6608-.0774.7793-.2324.1276-.1641.1914-.4375.1914-.8203v-3.2129c0-.2461-.0091-.4421-.0273-.5879-.0091-.1458-.041-.2598-.0957-.3418-.0547-.082-.1367-.1367-.2461-.164-.1094-.0274-.2598-.0411-.4512-.0411v-.2871c.2917-.0455.556-.1139.793-.2051.2461-.0911.4694-.2324.6699-.4238h.2598Zm7.8886 5.4004c0 .3919.0638.6426.1915.752.1276.1093.3919.164.7929.164v.3418h-.3555c-.1093 0-.2187-.0045-.3281-.0136h-.3418c-.1093-.0092-.2278-.0137-.3554-.0137-.1368 0-.2644.0045-.3829.0137h-.3281c-.1185 0-.237.0045-.3554.0136h-.3555v-.3418c.401 0 .6653-.0547.793-.164.1276-.1094.1914-.3601.1914-.752v-3.3496c0-.2461-.0092-.4421-.0274-.5879-.0182-.1458-.0547-.2598-.1094-.3418-.0546-.082-.1367-.1367-.2461-.164-.1093-.0274-.2597-.0411-.4511-.0411v-.2871c.2916-.0455.556-.1139.7929-.2051.2461-.0911.474-.2324.6836-.4238h.2461c-.0273.2461-.0455.5104-.0547.793v4.6074Zm-1.1211-8.3945c0-.1823.0639-.3418.1915-.4785.1367-.1368.2962-.2051.4785-.2051.1823 0 .3418.0683.4785.2051.1367.1367.2051.2962.2051.4785 0 .1823-.0684.3418-.2051.4785-.1367.1276-.2962.1914-.4785.1914-.1823 0-.3418-.0638-.4785-.1914-.1276-.1367-.1915-.2962-.1915-.4785Zm4.6895 7.8613c0 .5287.0775.8887.2324 1.0801.155.1914.3646.2871.6289.2871.0821 0 .1823-.0137.3008-.041.1276-.0274.2507-.0638.3692-.1094.1276-.0456.2415-.0911.3418-.1367.1002-.0456.1777-.0912.2324-.1367l.123.1914c-.2643.2734-.5423.4922-.834.6562-.2916.155-.6106.2324-.957.2324-.401 0-.7155-.1139-.9434-.3418-.2278-.2278-.3418-.5605-.3418-.998v-4.5801h-.957v-.2597c.4557-.1276.7975-.351 1.0254-.67.2279-.319.3919-.7656.4922-1.3398h.2871v1.668h2.1875v.6015h-2.1875v3.8965Zm8.0938.6973c-.4375.3554-.8933.6653-1.3672.9297-.474.2643-.9388.3964-1.3946.3964-.1731 0-.3463-.0319-.5195-.0957-.1732-.0546-.3327-.1549-.4785-.3007-.1367-.1368-.2507-.3145-.3418-.5332-.082-.2188-.1231-.4877-.1231-.8067v-3.7734c0-.3099-.0592-.515-.1777-.6153-.1185-.1093-.3509-.1731-.6973-.1914v-.2597c.1276 0 .2553-.0046.3829-.0137s.2643-.0182.4101-.0273c.1458-.0092.2962-.0183.4512-.0274.1549-.0182.3281-.0364.5195-.0547-.0182.1823-.0319.392-.041.6289v3.5957c0 .711.0911 1.1804.2734 1.4082.1914.2279.4922.3418.9024.3418.3463 0 .72-.0911 1.1211-.2734.4101-.1823.7747-.4238 1.0937-.7246v-3.7871c0-.3099-.0866-.515-.2597-.6153-.1732-.1093-.4284-.1731-.7657-.1914v-.2597c.1276 0 .2644-.0046.4102-.0137.1458-.0091.2962-.0182.4512-.0273.1549-.0092.319-.0183.4921-.0274.1732-.0182.3555-.0364.5469-.0547-.0182.1823-.0319.392-.041.6289v4.8125c0 .2917.0684.4694.2051.5332.1458.0547.3965.0684.7519.0411v.2597c-.0911.0182-.205.0456-.3418.082-.1276.0274-.2643.0639-.4101.1094-.155.0365-.3099.0729-.4649.1094-.1458.0456-.2871.0866-.4238.123-.0547.0183-.0957.0183-.123 0-.0274-.0182-.041-.0546-.041-.1093v-1.2168Zm4.5664-4.0742c.1367-.1823.2916-.3601.4648-.5332.1732-.1823.3464-.3464.5195-.4922.1823-.1368.3601-.2461.5332-.3282.1732-.0911.3373-.1367.4922-.1367.2188 0 .4102.0593.5742.1778.1641.1093.2461.2643.2461.4648 0 .2188-.0683.3874-.205.5059-.1276.1093-.2507.164-.3692.164-.1094 0-.1959-.0137-.2597-.041-.0638-.0365-.1277-.0775-.1915-.123-.0638-.0456-.1367-.0866-.2187-.1231-.0729-.0364-.1732-.0547-.3008-.0547-.082 0-.1959.041-.3418.1231-.1458.082-.2871.1868-.4238.3144-.1458.1276-.2689.278-.3692.4512-.1002.1641-.1503.3327-.1503.5059v2.8984c0 .2187.0136.401.041.5469.0364.1367.1093.2415.2187.3144.1094.0729.2643.1231.4649.1504.2005.0274.4694.041.8066.041v.3418c-.2096-.0091-.4694-.0136-.7793-.0136-.3099-.0092-.6289-.0137-.957-.0137-.3281 0-.6472.0045-.957.0137-.3099 0-.5697.0045-.7793.0136v-.3418c.4648 0 .7656-.0592.9023-.1777.1367-.1185.2051-.4102.2051-.875v-3.2129c0-.2461-.0091-.4421-.0274-.5879-.0182-.1458-.0547-.2598-.1093-.3418-.0547-.082-.1368-.1367-.2461-.164-.1094-.0274-.2598-.0411-.4512-.0411v-.2871c.2917-.0455.556-.1139.793-.2051.2461-.0911.4739-.2324.6836-.4238h.246c-.0273.2461-.0455.5013-.0546.7656v.7247Zm4.4843 1.1211c-.0273.1367-.041.2825-.041.4374 0 .155.0091.3555.0274.6016.0455.6927.2597 1.2761.6425 1.75.3829.4649.9069.6973 1.5723.6973.4557 0 .8477-.0866 1.1758-.2598.3372-.1823.6152-.4056.834-.6699l.1914.123c-.2552.4558-.6016.8386-1.0391 1.1485-.4284.3008-.9114.4511-1.4492.4511-.3919 0-.7565-.082-1.0938-.246-.3281-.1641-.6152-.392-.8613-.6836-.2461-.2917-.442-.6335-.5879-1.0254-.1367-.392-.2051-.8203-.2051-1.2852 0-.5742.073-1.0892.2188-1.5449.1458-.4557.3418-.8386.5879-1.1484.2552-.3191.5514-.5606.8887-.7247.3463-.164.7155-.246 1.1074-.246.2734 0 .5469.0455.8203.1367.2734.0911.5195.2278.7383.4101.2187.1914.3965.433.5332.7246.1367.2826.2096.6198.2187 1.0118 0 .1093-.0136.1914-.041.246-.0273.0456-.0957.0775-.2051.0958h-4.0332Zm2.9258-.4376c.1641 0 .2826-.0227.3555-.0683.0729-.0547.1094-.1504.1094-.2871 0-.1459-.0365-.3008-.1094-.4649-.0638-.164-.155-.3144-.2735-.4511-.1276-.1368-.2825-.2507-.4648-.3418-.1823-.0912-.3919-.1368-.6289-.1368-.5195 0-.9388.1641-1.2578.4922-.3099.319-.515.7383-.6153 1.2578h2.8848Z"/></symbol><symbol id='menu' viewBox="0 0 37 29"><path d="M35.4583 26H1.54167C.690667 26 0 26.672 0 27.5S.690667 29 1.54167 29H35.4583C36.3093 29 37 28.328 37 27.5s-.6907-1.5-1.5417-1.5ZM35.5 0h-21c-.828 0-1.5.672-1.5 1.5S13.672 3 14.5 3h21c.828 0 1.5-.672 1.5-1.5S36.328 0 35.5 0ZM35.4583 9H1.54167C.690667 9 0 9.672 0 10.5S.690667 12 1.54167 12H35.4583C36.3093 12 37 11.328 37 10.5S36.3093 9 35.4583 9ZM35.5 18h-21c-.828 0-1.5.672-1.5 1.5s.672 1.5 1.5 1.5h21c.828 0 1.5-.672 1.5-1.5s-.672-1.5-1.5-1.5Z"/></symbol><symbol id='close' viewBox="0 0 26 26"><path fill-rule="evenodd" d="M14.4364 13.0001 25.7025 1.73384c.3967-.39666.3967-1.03975 0-1.436351-.3966-.396601-1.0397-.396652-1.4363 0L13 11.5637 1.73383.297489c-.39665-.396652-1.039741-.396652-1.436342 0-.3966.396652-.39665 1.039741 0 1.436351L11.5636 13 .297488 24.2662c-.39665.3967-.39665 1.0398 0 1.4364.198301.1983.458249.2974.718202.2974.25994 0 .51984-.0991.71819-.2974L13 14.4364l11.2661 11.2662c.1983.1983.4583.2974.7182.2974.26 0 .5199-.0991.7182-.2974.3967-.3967.3967-1.0398 0-1.4364L14.4364 13.0001Z" clip-rule="evenodd"/></symbol></defs></svg>