<svg xmlns="http://www.w3.org/2000/svg"><defs><symbol id="logo" fill="none" viewBox="0 0 55 40"><path fill="#000" d="M31.96.445c0 .763-.72 1.76-2.159 2.99-1.438 1.231-3.484 2.73-6.136 4.498-1.612 2.167-2.981 4.238-4.108 6.214-1.109 1.976-1.664 3.346-1.664 4.108 0 .763.217 1.144.65 1.144.312 0 .737-.164 1.274-.494a9.826 9.826 0 0 0 1.404-.988l.572-.494c.104-.121.2-.182.286-.182.087 0 .13.035.13.104 0 .451-.554 1.006-1.664 1.664-1.109.659-1.941.988-2.496.988-1.057 0-1.586-.407-1.586-1.222 0-.832.416-2.071 1.248-3.718.832-1.646 1.907-3.414 3.224-5.304-2.86 1.855-5 3.259-6.422 4.212-1.837 2.514-3.666 4.689-5.486 6.526-1.82 1.855-3.094 2.782-3.822 2.782-.398 0-.598-.147-.598-.442 0-.97.737-2.158 2.21-3.562 1.491-1.404 3.554-3.024 6.188-4.862 1.63-2.322 2.99-4.524 4.082-6.604 1.11-2.097 1.664-3.622 1.664-4.576 0-1.092-.546-1.759-1.638-2.002a11.222 11.222 0 0 0-2.678-.312c-.918 0-1.655.026-2.21.078-.537.052-1.135.156-1.794.312-.658.139-1.196.373-1.612.702-.398.33-.598.728-.598 1.196 0 .538.468.962 1.404 1.274.954.312 2.011.624 3.172.936 1.179.312 1.933.694 2.262 1.144.139.156.234.442.286.858 0 .122-.043.182-.13.182-.069 0-.138-.06-.208-.182-.156-.364-.658-.684-1.508-.962a15.748 15.748 0 0 0-2.626-.676 9.835 9.835 0 0 1-2.47-.806c-.728-.381-1.092-.849-1.092-1.404 0-.554.182-1.031.546-1.43A3.523 3.523 0 0 1 9.131 1.2C9.634.991 10.267.827 11.03.705 12.173.55 13.508.471 15.033.471c1.543 0 2.739.252 3.588.754.867.503 1.3 1.205 1.3 2.106 0 1.924-1.542 5.096-4.628 9.516.832-.554 2.011-1.326 3.536-2.314a323.91 323.91 0 0 0 2.938-1.95c1.786-2.426 3.571-4.463 5.356-6.11C28.926.827 30.382.003 31.491.003c.312 0 .468.148.468.442ZM5.516 22.675c.486 0 1.352-.684 2.6-2.054 1.266-1.352 2.635-3.05 4.108-5.096-4.593 3.224-6.89 5.53-6.89 6.916 0 .156.061.234.182.234ZM30.867.601c-.485 0-1.3.572-2.444 1.716-1.144 1.127-2.409 2.583-3.796 4.368 4.264-2.912 6.396-4.888 6.396-5.928 0-.104-.052-.156-.156-.156Zm-3.372 16.64c.97 0 2.132-.546 3.484-1.638l.442.13c-1.699 1.422-3.163 2.132-4.394 2.132-.139 0-.243-.008-.312-.026a6.837 6.837 0 0 1-1.534 1.404c-.555.347-1.04.52-1.456.52-.659 0-.988-.364-.988-1.092 0-.745.615-1.733 1.846-2.964a4.107 4.107 0 0 1-.312-1.586c0-.554.2-1.005.598-1.352.399-.346.858-.52 1.378-.52.537 0 .988.174 1.352.52.364.347.546.841.546 1.482 0 .988-.32 1.976-.962 2.964.07.018.173.026.312.026Zm-.832-.26c.537-.901.806-1.664.806-2.288 0-.641-.156-1.109-.468-1.404-.312-.312-.615-.468-.91-.468-.607 0-.91.312-.91.936 0 .624.139 1.248.416 1.872.277.607.633 1.058 1.066 1.352Zm-2.86 1.534c0 .347.225.52.676.52.45 0 1.023-.459 1.716-1.378-.468-.242-.884-.667-1.248-1.274-.763.832-1.144 1.543-1.144 2.132Zm7.584-3.562-.052-.286c0-.086.182-.13.546-.13.208 0 .312.13.312.39s-.304.841-.91 1.742c-.59.884-.884 1.344-.884 1.378 0 .035.034.052.104.052.07 0 .866-.606 2.392-1.82 1.542-1.213 2.47-1.82 2.782-1.82.312 0 .468.113.468.338 0 .208-.087.451-.26.728-.174.26-.538.746-1.092 1.456-.555.694-.85 1.066-.884 1.118a.321.321 0 0 0-.052.182c0 .07.052.104.156.104.121 0 .98-.589 2.574-1.768 1.594-1.178 2.504-1.768 2.73-1.768.225 0 .338.096.338.286 0 .347-.382.954-1.144 1.82-.763.867-1.144 1.422-1.144 1.664 0 .226.086.338.26.338.19 0 .65-.242 1.378-.728a48.161 48.161 0 0 0 3.588-2.626l.572-.468c.138-.086.251-.13.338-.13.104 0 .156.052.156.156v.078c-3.658 3.051-5.92 4.576-6.786 4.576-.503 0-.754-.208-.754-.624 0-.346.251-.858.754-1.534.502-.676.754-1.04.754-1.092 0-.069-.026-.104-.078-.104-.035 0-.746.494-2.132 1.482-1.37.988-2.184 1.482-2.444 1.482a.425.425 0 0 1-.312-.13.489.489 0 0 1-.13-.312c0-.312.372-.944 1.118-1.898.745-.936 1.118-1.447 1.118-1.534 0-.086-.052-.13-.156-.13-.122 0-1.352.954-3.692 2.86l-1.3 1.04c-.226.191-.399.286-.52.286a.56.56 0 0 1-.312-.104.269.269 0 0 1-.156-.26c0-.121.147-.416.442-.884.312-.468.71-1.04 1.196-1.716.745-1.005 1.118-1.568 1.118-1.69Zm18.434.208a.594.594 0 0 1 .339-.13c.104 0 .156.061.156.182v.052c-1.803 1.491-3.303 2.609-4.498 3.354-1.197.746-2.28 1.118-3.25 1.118-.78 0-1.17-.381-1.17-1.144 0-1.126.571-2.279 1.715-3.458 1.145-1.196 2.106-1.794 2.886-1.794.434 0 .65.243.65.728-.086.954-1.456 2.236-4.108 3.848v.26c0 .572.295.858.885.858.606 0 1.256-.199 1.95-.598a25.692 25.692 0 0 0 3.796-2.73l.65-.546Zm-4.497-1.014c-.382 0-.876.321-1.482.962a5.026 5.026 0 0 0-1.197 2.184c.832-.502 1.534-1.031 2.106-1.586.573-.572.858-.97.858-1.196 0-.242-.095-.364-.285-.364Z"/><path stroke="#000" stroke-opacity=".54" d="M2 25.5h48"/><path fill="#000" fill-opacity=".41" d="M4.361 32.602v.601H2.502v4.416c0 .401.105.656.314.766.21.11.556.164 1.04.164v.342a21.25 21.25 0 0 0-.807-.014 28.645 28.645 0 0 0-1.791 0c-.292 0-.547.005-.766.014v-.342c.41 0 .707-.073.889-.219.191-.146.287-.392.287-.738v-4.389H.628v-.273c.238-.028.47-.1.698-.22.228-.127.342-.35.342-.669 0-.246.023-.524.068-.834.046-.31.119-.62.22-.93.09-.3.204-.588.34-.861.147-.282.315-.515.507-.697.355-.365.688-.62.998-.766.319-.146.533-.219.642-.219.21 0 .374.05.493.15.118.092.177.233.177.425a.403.403 0 0 1-.205.369.652.652 0 0 1-.52.11 1.749 1.749 0 0 0-.163-.056 1.912 1.912 0 0 0-.22-.054 1.878 1.878 0 0 0-.355-.028c-.21 0-.387.06-.533.178a1.698 1.698 0 0 0-.355.438c-.091.173-.16.355-.205.547-.037.19-.055.36-.055.505v2.284h1.86Zm5.838 5.195a9.532 9.532 0 0 1-1.367.93c-.474.264-.939.396-1.395.396-.173 0-.346-.032-.519-.096a1.176 1.176 0 0 1-.479-.3 1.63 1.63 0 0 1-.341-.534 2.31 2.31 0 0 1-.123-.806v-3.774c0-.31-.06-.515-.178-.615-.119-.11-.351-.173-.697-.191v-.26c.127 0 .255-.005.382-.014a46.472 46.472 0 0 1 .862-.055c.155-.018.328-.036.52-.054-.019.182-.033.392-.042.629v3.595c0 .711.091 1.18.274 1.409.191.227.492.341.902.341.346 0 .72-.09 1.121-.273.41-.182.775-.424 1.094-.725v-3.787c0-.31-.087-.515-.26-.615-.173-.11-.428-.173-.765-.191v-.26c.127 0 .264-.005.41-.014a123.985 123.985 0 0 1 .943-.055l.547-.054a10.44 10.44 0 0 0-.041.629V37.865c0 .292.068.47.205.533.146.055.396.069.752.041v.26a5.772 5.772 0 0 0-.342.082 4.688 4.688 0 0 0-.41.11l-.465.109c-.146.046-.287.087-.424.123-.054.018-.095.018-.123 0-.027-.018-.04-.055-.04-.11v-1.216Zm4.567-4.074c.136-.183.291-.36.464-.533.174-.183.347-.347.52-.493.182-.137.36-.246.533-.328a1.06 1.06 0 0 1 .492-.137c.22 0 .41.06.575.178.164.11.246.265.246.465 0 .219-.069.387-.205.506-.128.11-.251.164-.37.164a.674.674 0 0 1-.26-.041 2.28 2.28 0 0 1-.19-.123 1.247 1.247 0 0 0-.22-.123.683.683 0 0 0-.3-.055c-.082 0-.196.041-.342.123a2.214 2.214 0 0 0-.424.315 1.778 1.778 0 0 0-.369.45.96.96 0 0 0-.15.507v2.898c0 .219.013.401.04.547.037.137.11.242.22.314.109.073.264.123.464.15.2.028.47.042.807.042v.342c-.21-.01-.47-.014-.78-.014a32.276 32.276 0 0 0-1.913 0c-.31 0-.57.005-.78.014v-.342c.465 0 .766-.06.903-.178.136-.118.205-.41.205-.875v-3.213c0-.246-.01-.442-.028-.588a.794.794 0 0 0-.11-.342.398.398 0 0 0-.245-.163 1.942 1.942 0 0 0-.451-.042v-.287c.291-.045.556-.114.793-.205.246-.09.474-.232.683-.424h.246c-.027.246-.045.502-.054.766v.725Zm5.373-1.49c-.028.245-.046.487-.055.724v.533c.41-.3.852-.588 1.326-.861.474-.273.93-.41 1.367-.41.547 0 .94.2 1.176.601.237.392.356.87.356 1.436v3.24c0 .383.063.656.191.82.128.155.396.233.807.233v.342h-.37c-.109 0-.218-.005-.328-.014h-.341a4.964 4.964 0 0 0-.738 0H23.2c-.11 0-.223.005-.342.014h-.355v-.342c.392 0 .652-.078.78-.233.127-.164.19-.437.19-.82v-3.254c0-.456-.104-.784-.314-.984-.21-.2-.556-.301-1.039-.301-.137.01-.296.046-.478.11a4.453 4.453 0 0 0-.547.205 6.591 6.591 0 0 0-.56.3c-.174.11-.324.219-.452.328v3.596c0 .383.064.656.191.82.128.155.397.233.807.233v.342h-.37c-.108 0-.218-.005-.327-.014h-.342a4.964 4.964 0 0 0-.738 0h-.328c-.119 0-.237.005-.356.014h-.355v-.342c.4 0 .66-.078.779-.233.127-.164.191-.437.191-.82v-3.213c0-.246-.009-.442-.027-.588a.691.691 0 0 0-.096-.342.398.398 0 0 0-.246-.163 1.943 1.943 0 0 0-.451-.042v-.287c.292-.045.556-.114.793-.205a1.94 1.94 0 0 0 .67-.424h.26Zm7.888 5.4c0 .392.064.642.192.752.127.11.392.164.793.164v.342h-.356c-.11 0-.218-.005-.328-.014h-.342a4.964 4.964 0 0 0-.738 0h-.328c-.119 0-.237.005-.356.014h-.355v-.342c.401 0 .665-.055.793-.164.128-.11.191-.36.191-.752v-3.35c0-.246-.009-.442-.027-.588a.794.794 0 0 0-.11-.342.398.398 0 0 0-.245-.163 1.942 1.942 0 0 0-.452-.042v-.287c.292-.045.556-.114.793-.205.246-.09.474-.232.684-.424h.246c-.027.246-.046.51-.055.793V37.633Zm-1.12-8.395a.68.68 0 0 1 .67-.683c.181 0 .341.068.478.205a.656.656 0 0 1 .205.478.68.68 0 0 1-.684.67.68.68 0 0 1-.478-.191.68.68 0 0 1-.192-.479Zm4.689 7.862c0 .528.077.888.232 1.08a.767.767 0 0 0 .629.287c.082 0 .182-.014.3-.041a2.47 2.47 0 0 0 .37-.11c.128-.045.241-.09.342-.136.1-.046.178-.091.232-.137l.123.191a3.663 3.663 0 0 1-.834.657c-.291.155-.61.232-.957.232-.4 0-.715-.114-.943-.342-.228-.228-.342-.56-.342-.998v-4.58h-.957v-.26c.456-.127.797-.35 1.025-.67.228-.319.392-.765.493-1.34h.287v1.669h2.187v.601h-2.187V37.1Zm8.094.697a9.537 9.537 0 0 1-1.368.93c-.474.264-.939.396-1.394.396-.173 0-.347-.032-.52-.096a1.176 1.176 0 0 1-.478-.3 1.63 1.63 0 0 1-.342-.534 2.312 2.312 0 0 1-.123-.806v-3.774c0-.31-.06-.515-.178-.615-.118-.11-.35-.173-.697-.191v-.26c.127 0 .255-.005.383-.014a46.529 46.529 0 0 1 .861-.055c.155-.018.328-.036.52-.054a10.44 10.44 0 0 0-.041.629v3.595c0 .711.09 1.18.273 1.409.191.227.492.341.902.341.347 0 .72-.09 1.121-.273.41-.182.775-.424 1.094-.725v-3.787c0-.31-.087-.515-.26-.615-.173-.11-.428-.173-.765-.191v-.26c.127 0 .264-.005.41-.014a122.55 122.55 0 0 1 .943-.055l.547-.054a10.44 10.44 0 0 0-.04.629V37.865c0 .292.068.47.204.533.146.055.397.069.752.041v.26a5.791 5.791 0 0 0-.342.082 4.688 4.688 0 0 0-.41.11l-.465.109c-.145.046-.287.087-.424.123-.054.018-.095.018-.123 0-.027-.018-.04-.055-.04-.11v-1.216Zm4.566-4.074c.137-.183.291-.36.465-.533a6.46 6.46 0 0 1 .52-.493c.181-.137.36-.246.532-.328.174-.091.338-.137.493-.137.218 0 .41.06.574.178.164.11.246.265.246.465 0 .219-.068.387-.205.506-.128.11-.25.164-.37.164a.674.674 0 0 1-.259-.041 2.281 2.281 0 0 1-.192-.123 1.247 1.247 0 0 0-.218-.123.683.683 0 0 0-.301-.055c-.082 0-.196.041-.342.123a2.214 2.214 0 0 0-.424.315 1.78 1.78 0 0 0-.369.45.959.959 0 0 0-.15.507v2.898c0 .219.014.401.04.547.037.137.11.242.22.314.109.073.264.123.465.15.2.028.469.042.806.042v.342c-.21-.01-.47-.014-.78-.014a32.274 32.274 0 0 0-1.913 0c-.31 0-.57.005-.78.014v-.342c.465 0 .766-.06.903-.178.136-.118.205-.41.205-.875v-3.213c0-.246-.01-.442-.027-.588a.795.795 0 0 0-.11-.342.398.398 0 0 0-.246-.163 1.943 1.943 0 0 0-.451-.042v-.287c.292-.045.556-.114.793-.205.246-.09.474-.232.684-.424h.245c-.027.246-.045.502-.054.766v.725Zm4.484 1.12a2.232 2.232 0 0 0-.04.438c0 .155.008.356.027.602.045.692.26 1.276.642 1.75.383.465.907.697 1.572.697.456 0 .848-.087 1.176-.26.337-.182.615-.405.834-.67l.192.123a3.474 3.474 0 0 1-1.04 1.149c-.428.3-.91.451-1.449.451-.392 0-.756-.082-1.094-.246a2.7 2.7 0 0 1-.86-.684 3.429 3.429 0 0 1-.589-1.025 3.879 3.879 0 0 1-.205-1.285c0-.574.073-1.09.219-1.545.146-.456.342-.839.588-1.148.255-.32.551-.561.889-.725a2.579 2.579 0 0 1 1.928-.11c.273.092.519.228.738.41.218.192.396.434.533.725.136.283.21.62.218 1.012a.57.57 0 0 1-.04.246c-.028.046-.096.078-.206.096H48.74Zm2.926-.437c.164 0 .283-.023.356-.068.072-.055.109-.15.109-.287 0-.146-.037-.301-.11-.465a1.534 1.534 0 0 0-.273-.451 1.615 1.615 0 0 0-.465-.342 1.387 1.387 0 0 0-.629-.137c-.52 0-.939.164-1.258.492-.31.32-.514.739-.615 1.258h2.885Z"/></symbol></defs></svg>